<mxfile host="app.diagrams.net" modified="2022-09-14T02:18:22.857Z" agent="5.0 (Macintosh; Intel Mac OS X 10_15_7) AppleWebKit/537.36 (KHTML, like Gecko) Chrome/105.0.0.0 Safari/537.36" etag="OE2Az1lH85jz6OIeEqSQ" version="20.3.0" type="github">
  <diagram id="XzSydhDMULmtKusPZD3v" name="第 1 页">
    <mxGraphModel dx="1298" dy="834" grid="1" gridSize="10" guides="1" tooltips="1" connect="1" arrows="1" fold="1" page="1" pageScale="1" pageWidth="827" pageHeight="1169" math="0" shadow="0">
      <root>
        <mxCell id="0" />
        <mxCell id="1" parent="0" />
        <mxCell id="PesQSSokbItP70-qpr2--1" value="本地事务" style="swimlane;" vertex="1" parent="1">
          <mxGeometry x="169" y="40" width="200" height="330" as="geometry" />
        </mxCell>
        <mxCell id="PesQSSokbItP70-qpr2--8" style="edgeStyle=orthogonalEdgeStyle;rounded=0;orthogonalLoop=1;jettySize=auto;html=1;entryX=0.5;entryY=0;entryDx=0;entryDy=0;" edge="1" parent="PesQSSokbItP70-qpr2--1" source="PesQSSokbItP70-qpr2--3" target="PesQSSokbItP70-qpr2--5">
          <mxGeometry relative="1" as="geometry" />
        </mxCell>
        <mxCell id="PesQSSokbItP70-qpr2--3" value="调用rpc之前" style="rounded=0;whiteSpace=wrap;html=1;" vertex="1" parent="PesQSSokbItP70-qpr2--1">
          <mxGeometry x="40" y="40" width="120" height="60" as="geometry" />
        </mxCell>
        <mxCell id="PesQSSokbItP70-qpr2--12" style="edgeStyle=orthogonalEdgeStyle;rounded=0;orthogonalLoop=1;jettySize=auto;html=1;entryX=0.5;entryY=0;entryDx=0;entryDy=0;" edge="1" parent="PesQSSokbItP70-qpr2--1" source="PesQSSokbItP70-qpr2--5" target="PesQSSokbItP70-qpr2--6">
          <mxGeometry relative="1" as="geometry" />
        </mxCell>
        <mxCell id="PesQSSokbItP70-qpr2--5" value="执行rpc调用" style="rounded=0;whiteSpace=wrap;html=1;" vertex="1" parent="PesQSSokbItP70-qpr2--1">
          <mxGeometry x="40" y="130" width="120" height="60" as="geometry" />
        </mxCell>
        <mxCell id="PesQSSokbItP70-qpr2--6" value="本地事务回滚" style="rounded=0;whiteSpace=wrap;html=1;fillColor=#f8cecc;strokeColor=#b85450;" vertex="1" parent="PesQSSokbItP70-qpr2--1">
          <mxGeometry x="40" y="220" width="120" height="60" as="geometry" />
        </mxCell>
        <mxCell id="PesQSSokbItP70-qpr2--2" value="rpc事务" style="swimlane;" vertex="1" parent="1">
          <mxGeometry x="459" y="40" width="200" height="330" as="geometry" />
        </mxCell>
        <mxCell id="PesQSSokbItP70-qpr2--10" style="edgeStyle=orthogonalEdgeStyle;rounded=0;orthogonalLoop=1;jettySize=auto;html=1;entryX=0.5;entryY=0;entryDx=0;entryDy=0;" edge="1" parent="PesQSSokbItP70-qpr2--2" source="PesQSSokbItP70-qpr2--4" target="PesQSSokbItP70-qpr2--7">
          <mxGeometry relative="1" as="geometry" />
        </mxCell>
        <mxCell id="PesQSSokbItP70-qpr2--4" value="rpc数据变更" style="rounded=0;whiteSpace=wrap;html=1;" vertex="1" parent="PesQSSokbItP70-qpr2--2">
          <mxGeometry x="40" y="80" width="120" height="60" as="geometry" />
        </mxCell>
        <mxCell id="PesQSSokbItP70-qpr2--7" value="rpc事务提交" style="rounded=0;whiteSpace=wrap;html=1;fillColor=#d5e8d4;strokeColor=#82b366;" vertex="1" parent="PesQSSokbItP70-qpr2--2">
          <mxGeometry x="40" y="200" width="120" height="60" as="geometry" />
        </mxCell>
        <mxCell id="PesQSSokbItP70-qpr2--9" style="edgeStyle=orthogonalEdgeStyle;rounded=0;orthogonalLoop=1;jettySize=auto;html=1;entryX=0;entryY=0.5;entryDx=0;entryDy=0;" edge="1" parent="1" source="PesQSSokbItP70-qpr2--5" target="PesQSSokbItP70-qpr2--4">
          <mxGeometry relative="1" as="geometry" />
        </mxCell>
        <mxCell id="PesQSSokbItP70-qpr2--13" value="本地事务" style="swimlane;" vertex="1" parent="1">
          <mxGeometry x="169" y="470" width="200" height="330" as="geometry" />
        </mxCell>
        <mxCell id="PesQSSokbItP70-qpr2--14" style="edgeStyle=orthogonalEdgeStyle;rounded=0;orthogonalLoop=1;jettySize=auto;html=1;entryX=0.5;entryY=0;entryDx=0;entryDy=0;" edge="1" parent="PesQSSokbItP70-qpr2--13" source="PesQSSokbItP70-qpr2--15" target="PesQSSokbItP70-qpr2--17">
          <mxGeometry relative="1" as="geometry" />
        </mxCell>
        <mxCell id="PesQSSokbItP70-qpr2--15" value="调用rpc之前" style="rounded=0;whiteSpace=wrap;html=1;" vertex="1" parent="PesQSSokbItP70-qpr2--13">
          <mxGeometry x="40" y="40" width="120" height="60" as="geometry" />
        </mxCell>
        <mxCell id="PesQSSokbItP70-qpr2--16" style="edgeStyle=orthogonalEdgeStyle;rounded=0;orthogonalLoop=1;jettySize=auto;html=1;entryX=0.5;entryY=0;entryDx=0;entryDy=0;" edge="1" parent="PesQSSokbItP70-qpr2--13" source="PesQSSokbItP70-qpr2--17" target="PesQSSokbItP70-qpr2--18">
          <mxGeometry relative="1" as="geometry" />
        </mxCell>
        <mxCell id="PesQSSokbItP70-qpr2--17" value="执行rpc调用" style="rounded=0;whiteSpace=wrap;html=1;" vertex="1" parent="PesQSSokbItP70-qpr2--13">
          <mxGeometry x="40" y="130" width="120" height="60" as="geometry" />
        </mxCell>
        <mxCell id="PesQSSokbItP70-qpr2--18" value="本地事务提交" style="rounded=0;whiteSpace=wrap;html=1;fillColor=#d5e8d4;strokeColor=#82b366;" vertex="1" parent="PesQSSokbItP70-qpr2--13">
          <mxGeometry x="40" y="220" width="120" height="60" as="geometry" />
        </mxCell>
        <mxCell id="PesQSSokbItP70-qpr2--19" value="rpc事务" style="swimlane;" vertex="1" parent="1">
          <mxGeometry x="459" y="470" width="200" height="330" as="geometry" />
        </mxCell>
        <mxCell id="PesQSSokbItP70-qpr2--20" style="edgeStyle=orthogonalEdgeStyle;rounded=0;orthogonalLoop=1;jettySize=auto;html=1;entryX=0.5;entryY=0;entryDx=0;entryDy=0;" edge="1" parent="PesQSSokbItP70-qpr2--19" source="PesQSSokbItP70-qpr2--21" target="PesQSSokbItP70-qpr2--22">
          <mxGeometry relative="1" as="geometry" />
        </mxCell>
        <mxCell id="PesQSSokbItP70-qpr2--21" value="rpc数据变更" style="rounded=0;whiteSpace=wrap;html=1;" vertex="1" parent="PesQSSokbItP70-qpr2--19">
          <mxGeometry x="40" y="80" width="120" height="60" as="geometry" />
        </mxCell>
        <mxCell id="PesQSSokbItP70-qpr2--22" value="rpc事务回滚" style="rounded=0;whiteSpace=wrap;html=1;fillColor=#f8cecc;strokeColor=#b85450;" vertex="1" parent="PesQSSokbItP70-qpr2--19">
          <mxGeometry x="40" y="200" width="120" height="60" as="geometry" />
        </mxCell>
        <mxCell id="PesQSSokbItP70-qpr2--23" style="edgeStyle=orthogonalEdgeStyle;rounded=0;orthogonalLoop=1;jettySize=auto;html=1;entryX=0;entryY=0.5;entryDx=0;entryDy=0;" edge="1" parent="1" source="PesQSSokbItP70-qpr2--17" target="PesQSSokbItP70-qpr2--21">
          <mxGeometry relative="1" as="geometry" />
        </mxCell>
        <mxCell id="PesQSSokbItP70-qpr2--24" value="本地事务" style="swimlane;" vertex="1" parent="1">
          <mxGeometry x="169" y="920" width="200" height="210" as="geometry" />
        </mxCell>
        <mxCell id="PesQSSokbItP70-qpr2--26" value="调用rpc之前&lt;br&gt;预生成记录" style="rounded=0;whiteSpace=wrap;html=1;" vertex="1" parent="PesQSSokbItP70-qpr2--24">
          <mxGeometry x="40" y="40" width="120" height="60" as="geometry" />
        </mxCell>
        <mxCell id="PesQSSokbItP70-qpr2--30" value="rpc事务" style="swimlane;" vertex="1" parent="1">
          <mxGeometry x="459" y="920" width="200" height="330" as="geometry" />
        </mxCell>
        <mxCell id="PesQSSokbItP70-qpr2--31" style="edgeStyle=orthogonalEdgeStyle;rounded=0;orthogonalLoop=1;jettySize=auto;html=1;entryX=0.5;entryY=0;entryDx=0;entryDy=0;" edge="1" parent="PesQSSokbItP70-qpr2--30" source="PesQSSokbItP70-qpr2--32" target="PesQSSokbItP70-qpr2--33">
          <mxGeometry relative="1" as="geometry" />
        </mxCell>
        <mxCell id="PesQSSokbItP70-qpr2--32" value="rpc数据变更" style="rounded=0;whiteSpace=wrap;html=1;" vertex="1" parent="PesQSSokbItP70-qpr2--30">
          <mxGeometry x="40" y="80" width="120" height="60" as="geometry" />
        </mxCell>
        <mxCell id="PesQSSokbItP70-qpr2--33" value="rpc事务提交" style="rounded=0;whiteSpace=wrap;html=1;fillColor=#d5e8d4;strokeColor=#82b366;" vertex="1" parent="PesQSSokbItP70-qpr2--30">
          <mxGeometry x="40" y="200" width="120" height="60" as="geometry" />
        </mxCell>
        <mxCell id="PesQSSokbItP70-qpr2--34" style="edgeStyle=orthogonalEdgeStyle;rounded=0;orthogonalLoop=1;jettySize=auto;html=1;entryX=0;entryY=0.5;entryDx=0;entryDy=0;" edge="1" parent="1" source="PesQSSokbItP70-qpr2--28" target="PesQSSokbItP70-qpr2--32">
          <mxGeometry relative="1" as="geometry" />
        </mxCell>
        <mxCell id="PesQSSokbItP70-qpr2--41" style="edgeStyle=orthogonalEdgeStyle;rounded=0;orthogonalLoop=1;jettySize=auto;html=1;entryX=0.5;entryY=0;entryDx=0;entryDy=0;" edge="1" parent="1" source="PesQSSokbItP70-qpr2--28" target="PesQSSokbItP70-qpr2--40">
          <mxGeometry relative="1" as="geometry" />
        </mxCell>
        <mxCell id="PesQSSokbItP70-qpr2--28" value="执行rpc调用" style="rounded=0;whiteSpace=wrap;html=1;" vertex="1" parent="1">
          <mxGeometry x="209" y="1160" width="120" height="60" as="geometry" />
        </mxCell>
        <mxCell id="PesQSSokbItP70-qpr2--38" style="edgeStyle=orthogonalEdgeStyle;rounded=0;orthogonalLoop=1;jettySize=auto;html=1;entryX=0.5;entryY=0;entryDx=0;entryDy=0;" edge="1" parent="1" source="PesQSSokbItP70-qpr2--35" target="PesQSSokbItP70-qpr2--28">
          <mxGeometry relative="1" as="geometry" />
        </mxCell>
        <mxCell id="PesQSSokbItP70-qpr2--35" value="本地事务提交" style="rounded=0;whiteSpace=wrap;html=1;fillColor=#d5e8d4;strokeColor=#82b366;" vertex="1" parent="1">
          <mxGeometry x="209" y="1050" width="120" height="60" as="geometry" />
        </mxCell>
        <mxCell id="PesQSSokbItP70-qpr2--37" style="edgeStyle=orthogonalEdgeStyle;rounded=0;orthogonalLoop=1;jettySize=auto;html=1;entryX=0.5;entryY=0;entryDx=0;entryDy=0;" edge="1" parent="1" source="PesQSSokbItP70-qpr2--26" target="PesQSSokbItP70-qpr2--35">
          <mxGeometry relative="1" as="geometry" />
        </mxCell>
        <mxCell id="PesQSSokbItP70-qpr2--39" value="本地业务逻辑" style="swimlane;" vertex="1" parent="1">
          <mxGeometry x="150" y="870" width="240" height="610" as="geometry" />
        </mxCell>
        <mxCell id="PesQSSokbItP70-qpr2--60" value="本地事务" style="swimlane;" vertex="1" parent="PesQSSokbItP70-qpr2--39">
          <mxGeometry x="20" y="370" width="200" height="210" as="geometry" />
        </mxCell>
        <mxCell id="PesQSSokbItP70-qpr2--40" value="生效预生成数据" style="rounded=0;whiteSpace=wrap;html=1;" vertex="1" parent="PesQSSokbItP70-qpr2--60">
          <mxGeometry x="40" y="40" width="120" height="60" as="geometry" />
        </mxCell>
        <mxCell id="PesQSSokbItP70-qpr2--29" value="本地事务提交" style="rounded=0;whiteSpace=wrap;html=1;fillColor=#d5e8d4;strokeColor=#82b366;" vertex="1" parent="PesQSSokbItP70-qpr2--60">
          <mxGeometry x="39" y="130" width="120" height="60" as="geometry" />
        </mxCell>
        <mxCell id="PesQSSokbItP70-qpr2--42" style="edgeStyle=orthogonalEdgeStyle;rounded=0;orthogonalLoop=1;jettySize=auto;html=1;entryX=0.5;entryY=0;entryDx=0;entryDy=0;" edge="1" parent="PesQSSokbItP70-qpr2--60" source="PesQSSokbItP70-qpr2--40" target="PesQSSokbItP70-qpr2--29">
          <mxGeometry relative="1" as="geometry" />
        </mxCell>
        <mxCell id="PesQSSokbItP70-qpr2--43" value="本地事务" style="swimlane;" vertex="1" parent="1">
          <mxGeometry x="169" y="1570" width="200" height="210" as="geometry" />
        </mxCell>
        <mxCell id="PesQSSokbItP70-qpr2--44" value="调用rpc之前&lt;br&gt;预生成记录" style="rounded=0;whiteSpace=wrap;html=1;" vertex="1" parent="PesQSSokbItP70-qpr2--43">
          <mxGeometry x="40" y="40" width="120" height="60" as="geometry" />
        </mxCell>
        <mxCell id="PesQSSokbItP70-qpr2--45" value="rpc事务" style="swimlane;" vertex="1" parent="1">
          <mxGeometry x="459" y="1570" width="200" height="330" as="geometry" />
        </mxCell>
        <mxCell id="PesQSSokbItP70-qpr2--46" style="edgeStyle=orthogonalEdgeStyle;rounded=0;orthogonalLoop=1;jettySize=auto;html=1;entryX=0.5;entryY=0;entryDx=0;entryDy=0;" edge="1" parent="PesQSSokbItP70-qpr2--45" source="PesQSSokbItP70-qpr2--47" target="PesQSSokbItP70-qpr2--48">
          <mxGeometry relative="1" as="geometry" />
        </mxCell>
        <mxCell id="PesQSSokbItP70-qpr2--47" value="rpc数据变更" style="rounded=0;whiteSpace=wrap;html=1;" vertex="1" parent="PesQSSokbItP70-qpr2--45">
          <mxGeometry x="40" y="80" width="120" height="60" as="geometry" />
        </mxCell>
        <mxCell id="PesQSSokbItP70-qpr2--48" value="rpc事务回魂" style="rounded=0;whiteSpace=wrap;html=1;fillColor=#f8cecc;strokeColor=#b85450;" vertex="1" parent="PesQSSokbItP70-qpr2--45">
          <mxGeometry x="40" y="200" width="120" height="60" as="geometry" />
        </mxCell>
        <mxCell id="PesQSSokbItP70-qpr2--49" style="edgeStyle=orthogonalEdgeStyle;rounded=0;orthogonalLoop=1;jettySize=auto;html=1;entryX=0;entryY=0.5;entryDx=0;entryDy=0;dashed=1;fillColor=#f8cecc;strokeColor=#b85450;" edge="1" parent="1" source="PesQSSokbItP70-qpr2--51" target="PesQSSokbItP70-qpr2--47">
          <mxGeometry relative="1" as="geometry" />
        </mxCell>
        <mxCell id="PesQSSokbItP70-qpr2--59" value="rpc结果未知" style="edgeLabel;html=1;align=center;verticalAlign=middle;resizable=0;points=[];" vertex="1" connectable="0" parent="PesQSSokbItP70-qpr2--49">
          <mxGeometry x="-0.1636" y="-3" relative="1" as="geometry">
            <mxPoint as="offset" />
          </mxGeometry>
        </mxCell>
        <mxCell id="PesQSSokbItP70-qpr2--50" style="edgeStyle=orthogonalEdgeStyle;rounded=0;orthogonalLoop=1;jettySize=auto;html=1;entryX=0.5;entryY=0;entryDx=0;entryDy=0;dashed=1;" edge="1" parent="1" source="PesQSSokbItP70-qpr2--51" target="PesQSSokbItP70-qpr2--58">
          <mxGeometry relative="1" as="geometry" />
        </mxCell>
        <mxCell id="PesQSSokbItP70-qpr2--51" value="执行rpc调用" style="rounded=0;whiteSpace=wrap;html=1;" vertex="1" parent="1">
          <mxGeometry x="209" y="1810" width="120" height="60" as="geometry" />
        </mxCell>
        <mxCell id="PesQSSokbItP70-qpr2--52" style="edgeStyle=orthogonalEdgeStyle;rounded=0;orthogonalLoop=1;jettySize=auto;html=1;entryX=0.5;entryY=0;entryDx=0;entryDy=0;" edge="1" parent="1" source="PesQSSokbItP70-qpr2--53" target="PesQSSokbItP70-qpr2--51">
          <mxGeometry relative="1" as="geometry" />
        </mxCell>
        <mxCell id="PesQSSokbItP70-qpr2--53" value="本地事务提交" style="rounded=0;whiteSpace=wrap;html=1;fillColor=#d5e8d4;strokeColor=#82b366;" vertex="1" parent="1">
          <mxGeometry x="209" y="1700" width="120" height="60" as="geometry" />
        </mxCell>
        <mxCell id="PesQSSokbItP70-qpr2--54" style="edgeStyle=orthogonalEdgeStyle;rounded=0;orthogonalLoop=1;jettySize=auto;html=1;entryX=0.5;entryY=0;entryDx=0;entryDy=0;" edge="1" parent="1" source="PesQSSokbItP70-qpr2--44" target="PesQSSokbItP70-qpr2--53">
          <mxGeometry relative="1" as="geometry" />
        </mxCell>
        <mxCell id="PesQSSokbItP70-qpr2--55" value="本地业务逻辑" style="swimlane;" vertex="1" parent="1">
          <mxGeometry x="150" y="1520" width="240" height="610" as="geometry" />
        </mxCell>
        <mxCell id="PesQSSokbItP70-qpr2--56" value="本地事务提交" style="rounded=0;whiteSpace=wrap;html=1;dashed=1;strokeColor=#EA6B66;" vertex="1" parent="PesQSSokbItP70-qpr2--55">
          <mxGeometry x="60" y="502" width="120" height="60" as="geometry" />
        </mxCell>
        <mxCell id="PesQSSokbItP70-qpr2--57" style="edgeStyle=orthogonalEdgeStyle;rounded=0;orthogonalLoop=1;jettySize=auto;html=1;entryX=0.5;entryY=0;entryDx=0;entryDy=0;" edge="1" parent="PesQSSokbItP70-qpr2--55" source="PesQSSokbItP70-qpr2--58" target="PesQSSokbItP70-qpr2--56">
          <mxGeometry relative="1" as="geometry" />
        </mxCell>
        <mxCell id="PesQSSokbItP70-qpr2--58" value="生效预生成数据" style="rounded=0;whiteSpace=wrap;html=1;dashed=1;strokeColor=#F19C99;" vertex="1" parent="PesQSSokbItP70-qpr2--55">
          <mxGeometry x="60" y="412" width="120" height="60" as="geometry" />
        </mxCell>
        <mxCell id="PesQSSokbItP70-qpr2--63" value="本地事务" style="swimlane;strokeColor=#EA6B66;dashed=1;" vertex="1" parent="PesQSSokbItP70-qpr2--55">
          <mxGeometry x="19" y="370" width="200" height="210" as="geometry" />
        </mxCell>
      </root>
    </mxGraphModel>
  </diagram>
</mxfile>
